<svg width="551" height="317" viewBox="0 0 551 317" fill="none" xmlns="http://www.w3.org/2000/svg">
<path d="M545.444 50.0073C548.817 49.031 551 46.1308 551 42.6132V25.2032C551 18.3001 548.267 11.8593 543.304 7.06391C538.345 2.27423 531.814 -0.229721 524.907 0.017229C518.347 0.249821 512.221 3.07538 507.66 7.9713C504.026 11.8737 501.705 16.7323 500.934 21.9441V7.71C500.934 2.88299 496.984 0 493.164 0C490.536 0 488.201 1.30654 486.759 3.58651L479.313 15.3338C478.518 16.5858 477.159 17.3353 475.676 17.3353C474.193 17.3353 472.825 16.583 472.03 15.3224L464.773 3.78465C463.33 1.49031 460.99 0.175162 458.354 0.175162C454.533 0.175162 450.584 3.05816 450.584 7.88516V21.3698C449.763 15.9397 447.205 10.9634 443.175 7.06965C438.216 2.27423 431.682 -0.229721 424.778 0.017229C418.218 0.249821 412.091 3.07538 407.531 7.9713C403.896 11.8737 401.576 16.7323 400.807 21.9441V7.71C400.804 2.88299 396.855 0 393.034 0C390.407 0 388.072 1.30654 386.629 3.58651L379.183 15.3338C378.389 16.5858 377.029 17.3353 375.546 17.3353C374.063 17.3353 372.695 16.583 371.901 15.3224L364.644 3.78465C363.201 1.49031 360.861 0.175162 358.225 0.175162C354.404 0.175162 350.454 3.05816 350.454 7.88516V21.3698C349.634 15.9397 347.076 10.9634 343.046 7.06965C338.086 2.27423 331.549 -0.229721 324.648 0.017229C318.088 0.249821 311.962 3.07538 307.401 7.9713C303.767 11.8737 301.447 16.7323 300.675 21.9441V7.71C300.675 2.88299 296.725 0 292.905 0C290.277 0 287.943 1.30654 286.5 3.58651L279.054 15.3338C278.259 16.5858 276.9 17.3353 275.417 17.3353C273.934 17.3353 272.566 16.583 271.771 15.3224L264.514 3.78465C263.072 1.49031 260.731 0.175162 258.095 0.175162C254.275 0.175162 250.325 3.05816 250.325 7.88516V21.3698C249.505 15.9397 246.946 10.9634 242.916 7.06965C237.957 2.27423 231.423 -0.229721 224.516 0.017229C217.956 0.249821 211.83 3.07538 207.269 7.9713C203.635 11.8737 201.314 16.7323 200.546 21.9441V7.71C200.546 2.88299 196.596 0 192.775 0C190.148 0 187.813 1.30654 186.371 3.58651L178.924 15.3338C178.13 16.5858 176.77 17.3353 175.287 17.3353C173.805 17.3353 172.436 16.583 171.645 15.3224L164.388 3.78465C162.945 1.49031 160.605 0.175162 157.969 0.175162C154.148 0.175162 150.198 3.05816 150.198 7.88516V21.3698C149.378 15.9397 146.82 10.9634 142.79 7.06965C137.827 2.27423 131.291 -0.223978 124.387 0.017229C117.827 0.249821 111.7 3.07538 107.14 7.9713C103.505 11.8737 101.185 16.7323 100.413 21.9441V7.71C100.416 2.88299 96.4666 0 92.646 0C90.0187 0 87.6839 1.30654 86.2411 3.58651L78.795 15.3338C78.0005 16.5858 76.6409 17.3353 75.158 17.3353C73.6751 17.3353 72.3069 16.583 71.5124 15.3224L64.2556 3.78465C62.8129 1.49031 60.4723 0.175162 57.8364 0.175162C54.0158 0.175162 50.0661 3.05816 50.0661 7.88516V21.3698C49.2458 15.9397 46.6873 10.9605 42.6573 7.06965C37.6952 2.27423 31.1612 -0.232592 24.2572 0.017229C17.6974 0.249821 11.5707 3.07538 7.01012 7.9713C2.48968 12.8242 0 19.1558 0 25.8062V42.7883C0 46.2973 2.17417 49.1975 5.54155 50.1767C6.29305 50.395 7.04454 50.5012 7.77882 50.5012C8.11155 50.5012 8.4414 50.4782 8.76552 50.4352C8.15744 50.975 7.57231 51.5436 7.01012 52.1466C2.48968 56.9994 0 63.334 0 69.9815V86.9636C0 91.7877 3.94965 94.6736 7.77022 94.6736C8.25496 94.6736 8.72823 94.6276 9.18716 94.5415C8.42993 95.1847 7.70138 95.871 7.01012 96.6119C2.48968 101.465 0 107.799 0 114.447V131.429C0 134.938 2.17417 137.838 5.54155 138.817C6.29305 139.036 7.04454 139.142 7.77882 139.142C8.25496 139.142 8.72249 139.096 9.18142 139.01C8.42706 139.653 7.69851 140.336 7.01012 141.077C2.48968 145.93 0 152.265 0 158.912V175.894C0 180.718 3.94965 183.604 7.77022 183.604C8.25496 183.604 8.72823 183.558 9.18716 183.472C8.42993 184.115 7.70138 184.802 7.01012 185.542C2.48968 190.395 0 196.73 0 203.377V220.359C0 223.868 2.17417 226.769 5.54155 227.748C6.29305 227.966 7.04454 228.072 7.77882 228.072C8.25496 228.072 8.72249 228.026 9.18142 227.94C8.42706 228.583 7.69851 229.267 7.01012 230.008C2.48968 234.861 0 241.195 0 247.843V264.825C0 269.649 3.94965 272.532 7.77022 272.532C8.25496 272.532 8.72823 272.486 9.18716 272.4C8.42993 273.043 7.70138 273.729 7.01012 274.47C2.48968 279.323 0 285.658 0 292.305V309.287C0 312.796 2.17417 315.696 5.54155 316.676C6.29305 316.894 7.04454 317 7.77882 317C10.3431 317 12.7152 315.714 14.1751 313.411L21.6212 301.663C22.4157 300.408 23.7753 299.662 25.2582 299.662C25.2582 299.662 25.264 299.662 25.2668 299.662C26.7526 299.662 28.1122 300.417 28.9038 301.675L36.1606 313.213C38.0336 316.187 41.4211 317.48 44.7971 316.506C48.1702 315.53 50.353 312.63 50.353 309.112V295.596C52.2374 307.986 63.1656 317.436 76.159 316.974C82.7188 316.742 88.8455 313.916 93.4061 309.02C97.0402 305.118 99.3607 300.259 100.132 295.047V309.279C100.132 312.788 102.306 315.691 105.674 316.667C106.425 316.885 107.177 316.991 107.911 316.991C110.475 316.991 112.847 315.705 114.307 313.402L121.754 301.655C122.548 300.4 123.908 299.653 125.391 299.653C125.391 299.653 125.396 299.653 125.399 299.653C126.885 299.653 128.244 300.408 129.036 301.666L136.293 313.204C138.163 316.179 141.553 317.471 144.929 316.497C148.305 315.521 150.485 312.621 150.485 309.103V295.587C152.37 307.978 163.289 317.431 176.291 316.966C182.851 316.733 188.978 313.907 193.538 309.012C197.173 305.109 199.493 300.251 200.265 295.039V309.27C200.265 312.779 202.439 315.679 205.806 316.658C206.558 316.877 207.309 316.983 208.043 316.983C210.608 316.983 212.98 315.696 214.44 313.393L221.886 301.646C222.68 300.391 224.04 299.645 225.523 299.645C225.523 299.645 225.529 299.645 225.531 299.645C227.017 299.645 228.377 300.4 229.168 301.658L236.425 313.195C238.298 316.17 241.686 317.462 245.062 316.489C248.435 315.513 250.618 312.612 250.618 309.095V295.579C252.502 307.969 263.424 317.419 276.424 316.957C282.983 316.724 289.11 313.899 293.671 309.003C297.305 305.1 299.625 300.242 300.397 295.03V309.261C300.397 312.77 302.571 315.673 305.938 316.65C306.69 316.868 307.441 316.974 308.176 316.974C310.74 316.974 313.112 315.688 314.572 313.385L322.018 301.637C322.813 300.383 324.172 299.636 325.655 299.636C325.655 299.636 325.661 299.636 325.664 299.636C327.149 299.636 328.509 300.391 329.301 301.649L336.557 313.187C338.428 316.162 341.818 317.454 345.194 316.48C348.57 315.504 350.75 312.604 350.75 309.086V295.57C352.634 307.961 363.557 317.414 376.556 316.948C383.116 316.716 389.242 313.89 393.803 308.994C397.437 305.092 399.758 300.233 400.526 295.022V309.253C400.526 312.762 402.7 315.662 406.068 316.641C406.819 316.859 407.571 316.966 408.305 316.966C410.869 316.966 413.241 315.679 414.701 313.376L422.147 301.629C422.942 300.374 424.302 299.627 425.784 299.627C425.784 299.627 425.79 299.627 425.793 299.627C427.279 299.627 428.638 300.383 429.43 301.64L436.687 313.178C438.557 316.153 441.947 317.445 445.323 316.472C448.696 315.495 450.879 312.595 450.879 309.078V295.561C452.764 307.952 463.692 317.405 476.685 316.94C483.245 316.707 489.372 313.882 493.932 308.986C497.566 305.083 499.887 300.225 500.656 295.013V309.244C500.656 312.753 502.83 315.653 506.197 316.632C506.949 316.851 507.7 316.957 508.434 316.957C510.999 316.957 513.371 315.671 514.831 313.368L522.277 301.62C523.071 300.365 524.431 299.619 525.914 299.619H525.922C527.408 299.619 528.768 300.374 529.559 301.632L536.816 313.169C538.686 316.144 542.077 317.436 545.453 316.463C548.829 315.487 551.009 312.587 551.009 309.069V291.659C551.009 284.756 548.275 278.315 543.313 273.52C542.825 273.049 542.315 272.604 541.799 272.176C542.266 272.265 542.748 272.311 543.238 272.311C547.059 272.311 551.009 269.428 551.009 264.601V247.191C551.009 239.346 547.409 232.334 541.778 227.708C542.954 227.937 544.205 227.891 545.453 227.53C548.829 226.553 551.009 223.653 551.009 220.135V202.726C551.009 195.822 548.275 189.382 543.313 184.586C542.825 184.112 542.315 183.67 541.799 183.242C542.266 183.331 542.748 183.377 543.238 183.377C547.059 183.377 551.009 180.494 551.009 175.667V158.257C551.009 150.418 547.415 143.403 541.79 138.777C542.963 139.007 544.208 138.955 545.456 138.596C548.829 137.62 551.011 134.72 551.011 131.202V113.792C551.011 106.889 548.278 100.448 543.316 95.6528C542.828 95.179 542.318 94.7368 541.801 94.3089C542.269 94.3979 542.751 94.4439 543.241 94.4439C547.062 94.4439 551.011 91.5609 551.011 86.7339V69.3239C551.011 61.6828 547.595 54.8228 542.214 50.1968C543.261 50.3404 544.36 50.2657 545.458 49.9499L545.444 50.0073ZM506.191 50.1767C506.943 50.395 507.694 50.5012 508.429 50.5012C508.761 50.5012 509.091 50.4782 509.415 50.4352C508.807 50.975 508.222 51.5436 507.66 52.1466C504.026 56.049 501.705 60.9075 500.934 66.1193V51.8853C500.934 48.3763 498.76 45.4761 495.392 44.4969C494.302 44.181 493.21 44.1035 492.165 44.2413C492.774 43.7015 493.362 43.13 493.924 42.5241C497.558 38.6218 499.878 33.7632 500.647 28.5514V42.7855C500.647 46.2944 502.821 49.1947 506.189 50.1738L506.191 50.1767ZM495.392 222.355C494.156 221.996 492.917 221.945 491.75 222.166C492.507 221.522 493.235 220.836 493.924 220.095C497.558 216.193 499.878 211.334 500.647 206.123V220.354C500.647 223.863 502.821 226.763 506.189 227.742C506.94 227.96 507.692 228.067 508.426 228.067C508.902 228.067 509.37 228.021 509.828 227.934C509.074 228.578 508.346 229.261 507.657 230.002C504.023 233.904 501.703 238.763 500.931 243.975V229.741C500.931 226.232 498.757 223.331 495.389 222.352L495.392 222.355ZM450.584 229.916V243.432C449.629 237.143 446.339 231.619 441.638 227.756C442.814 227.989 444.067 227.94 445.315 227.578C448.688 226.602 450.871 223.702 450.871 220.184V206.668C451.826 212.954 455.113 218.479 459.811 222.341C458.638 222.111 457.387 222.16 456.14 222.519C452.764 223.495 450.584 226.395 450.584 229.913V229.916ZM437.892 267.983L430.635 256.443C429.576 254.763 427.761 253.758 425.776 253.758C423.791 253.758 421.987 254.754 420.928 256.426L413.482 268.173C411.873 270.711 409.536 271.093 408.288 271.093C405.173 271.093 401.952 268.747 401.952 264.822V247.84C401.952 241.557 404.304 235.57 408.578 230.984C412.877 226.37 418.648 223.708 424.826 223.487C425.113 223.475 425.406 223.472 425.693 223.472C438.784 223.472 449.434 234.134 449.434 247.24V264.65C449.434 268.575 446.212 270.924 443.098 270.924C440.964 270.924 439.065 269.853 437.892 267.986V267.983ZM395.263 222.355C394.027 221.996 392.788 221.945 391.62 222.166C392.377 221.522 393.106 220.836 393.794 220.095C397.428 216.193 399.749 211.334 400.518 206.123V220.354C400.518 223.863 402.692 226.763 406.059 227.742C406.811 227.96 407.562 228.067 408.296 228.067C408.773 228.067 409.24 228.021 409.699 227.934C408.945 228.578 408.216 229.261 407.528 230.002C403.894 233.904 401.573 238.763 400.804 243.975V229.741C400.804 226.232 398.63 223.331 395.263 222.352V222.355ZM350.454 229.916V243.432C349.499 237.146 346.212 231.622 341.511 227.756C342.687 227.986 343.938 227.937 345.185 227.578C348.561 226.602 350.741 223.702 350.741 220.184V206.668C351.696 212.954 354.981 218.479 359.679 222.341C358.506 222.111 357.258 222.16 356.01 222.522C352.634 223.498 350.454 226.398 350.454 229.916ZM337.762 267.983L330.505 256.443C329.447 254.763 327.631 253.758 325.649 253.758C323.667 253.758 321.86 254.754 320.802 256.426L313.356 268.173C311.747 270.711 309.409 271.093 308.161 271.093C305.046 271.093 301.825 268.747 301.825 264.822V247.84C301.825 241.557 304.177 235.57 308.451 230.984C312.751 226.37 318.522 223.708 324.7 223.487C324.987 223.475 325.279 223.472 325.566 223.472C338.657 223.472 349.307 234.134 349.307 247.24V264.65C349.307 268.575 346.086 270.924 342.971 270.924C340.837 270.924 338.938 269.853 337.765 267.986L337.762 267.983ZM295.133 222.355C293.897 221.996 292.658 221.945 291.491 222.166C292.248 221.522 292.977 220.836 293.665 220.098C297.299 216.196 299.62 211.337 300.391 206.125V220.357C300.391 223.866 302.565 226.769 305.933 227.745C306.684 227.963 307.436 228.069 308.17 228.069C308.646 228.069 309.114 228.023 309.573 227.937C308.818 228.581 308.09 229.264 307.401 230.005C303.767 233.907 301.447 238.766 300.675 243.978V229.744C300.675 226.235 298.501 223.334 295.133 222.355ZM250.325 229.916V243.432C249.37 237.146 246.08 231.619 241.379 227.756C242.555 227.989 243.805 227.94 245.056 227.578C248.429 226.602 250.612 223.702 250.612 220.184V206.668C251.567 212.954 254.854 218.479 259.552 222.341C258.376 222.111 257.129 222.16 255.881 222.519C252.505 223.495 250.325 226.395 250.325 229.913V229.916ZM237.633 267.983L230.376 256.443C229.318 254.763 227.502 253.758 225.517 253.758C223.532 253.758 221.728 254.754 220.67 256.426L213.224 268.173C211.614 270.711 209.277 271.093 208.029 271.093C204.914 271.093 201.693 268.747 201.693 264.822V247.84C201.693 241.557 204.045 235.57 208.319 230.984C212.618 226.37 218.389 223.708 224.568 223.487C224.854 223.475 225.147 223.472 225.434 223.472C238.525 223.472 249.175 234.134 249.175 247.24V264.65C249.175 268.575 245.954 270.924 242.839 270.924C240.705 270.924 238.806 269.853 237.633 267.986V267.983ZM195.004 222.355C193.768 221.996 192.529 221.945 191.361 222.166C192.119 221.522 192.847 220.836 193.536 220.095C197.17 216.193 199.49 211.334 200.262 206.123V220.354C200.262 223.863 202.436 226.763 205.803 227.742C206.555 227.96 207.306 228.067 208.04 228.067C208.517 228.067 208.984 228.021 209.443 227.934C208.689 228.578 207.96 229.261 207.272 230.002C203.638 233.904 201.317 238.763 200.549 243.975V229.741C200.549 226.232 198.374 223.331 195.007 222.352L195.004 222.355ZM137.503 267.983L130.247 256.443C129.188 254.763 127.372 253.758 125.391 253.758C123.409 253.758 121.601 254.754 120.543 256.426L113.097 268.173C111.488 270.711 109.15 271.093 107.902 271.093C104.788 271.093 101.566 268.747 101.566 264.822V247.84C101.566 241.557 103.918 235.57 108.192 230.984C112.492 226.37 118.263 223.708 124.441 223.487C124.728 223.475 125.02 223.472 125.307 223.472C138.398 223.472 149.048 234.134 149.048 247.24V264.65C149.048 268.575 145.827 270.924 142.712 270.924C140.578 270.924 138.679 269.853 137.506 267.986L137.503 267.983ZM94.8747 222.355C93.6384 221.996 92.3993 221.945 91.2319 222.166C91.9892 221.522 92.7177 220.836 93.4061 220.098C97.0402 216.196 99.3607 211.337 100.132 206.125V220.357C100.132 223.866 102.306 226.769 105.674 227.745C106.425 227.963 107.177 228.069 107.911 228.069C108.387 228.069 108.855 228.023 109.314 227.937C108.559 228.581 107.831 229.264 107.142 230.005C103.508 233.907 101.188 238.766 100.416 243.978V229.744C100.416 226.235 98.2421 223.334 94.8747 222.355ZM50.0633 229.916V243.432C49.1081 237.146 45.8211 231.622 41.1199 227.756C42.2959 227.986 43.5465 227.937 44.7942 227.578C48.1673 226.602 50.3501 223.702 50.3501 220.184V206.668C51.3052 212.957 54.5923 218.481 59.2963 222.344C58.1203 222.111 56.8697 222.16 55.6192 222.522C52.2432 223.498 50.0633 226.398 50.0633 229.916ZM50.3501 86.7913V73.3067C51.1704 78.7367 53.729 83.713 57.7589 87.6068C58.2465 88.0777 58.7542 88.5228 59.2734 88.9507C58.8058 88.8617 58.3268 88.8157 57.8364 88.8157C54.0158 88.8157 50.0661 91.6987 50.0661 96.5228V110.007C49.2458 104.577 46.6873 99.5982 42.6573 95.7073C42.1697 95.2364 41.662 94.7913 41.1429 94.3663C41.6104 94.4554 42.0923 94.5013 42.5827 94.5013C46.4033 94.5013 50.353 91.6183 50.353 86.7913H50.3501ZM107.9 94.6736C108.384 94.6736 108.858 94.6276 109.317 94.5415C108.559 95.1847 107.831 95.871 107.14 96.6119C103.505 100.514 101.185 105.373 100.413 110.585V96.3506C100.413 91.5264 96.4637 88.6434 92.6431 88.6434C92.1584 88.6434 91.6851 88.6894 91.2262 88.7755C91.9834 88.1323 92.712 87.446 93.4033 86.7052C97.0374 82.8028 99.3578 77.9442 100.129 72.7324V86.9665C100.129 91.7906 104.079 94.6765 107.9 94.6765V94.6736ZM124.438 45.6282C124.725 45.6168 125.018 45.6139 125.304 45.6139C138.395 45.6139 149.045 56.2758 149.045 69.3814V86.7913C149.045 90.7167 145.824 93.0655 142.709 93.0655C140.575 93.0655 138.676 91.9945 137.503 90.128L130.247 78.5903C129.188 76.9104 127.372 75.9054 125.391 75.9054C123.409 75.9054 121.601 76.9018 120.543 78.5731L113.097 90.3204C111.488 92.8617 109.15 93.2407 107.902 93.2407C104.788 93.2407 101.566 90.8947 101.566 86.9665V69.9844C101.566 63.7015 103.918 57.7144 108.192 53.1286C112.492 48.5141 118.263 45.8522 124.441 45.6311L124.438 45.6282ZM150.482 86.7913V73.3067C151.303 78.7367 153.861 83.7159 157.891 87.6068C158.379 88.0777 158.886 88.5228 159.403 88.9478C158.935 88.8588 158.456 88.8128 157.966 88.8128C154.145 88.8128 150.196 91.6958 150.196 96.52V110.005C149.375 104.575 146.817 99.5982 142.787 95.7045C142.299 95.2307 141.789 94.7884 141.272 94.3606C141.74 94.4496 142.222 94.4956 142.712 94.4956C146.533 94.4956 150.482 91.6126 150.482 86.7856V86.7913ZM208.029 94.6736C208.514 94.6736 208.987 94.6276 209.446 94.5415C208.689 95.1847 207.96 95.871 207.269 96.6119C203.635 100.514 201.314 105.373 200.546 110.585V96.3506C200.546 91.5264 196.596 88.6434 192.775 88.6434C192.291 88.6434 191.817 88.6894 191.358 88.7755C192.116 88.1323 192.844 87.446 193.536 86.7052C197.17 82.8028 199.49 77.9442 200.262 72.7324V86.9665C200.262 91.7906 204.211 94.6765 208.032 94.6765L208.029 94.6736ZM224.568 45.6282C224.854 45.6168 225.147 45.6139 225.434 45.6139C238.525 45.6139 249.175 56.2758 249.175 69.3814V86.7913C249.175 90.7167 245.954 93.0655 242.839 93.0655C240.705 93.0655 238.806 91.9945 237.633 90.128L230.376 78.5903C229.318 76.9104 227.502 75.9054 225.517 75.9054C223.532 75.9054 221.728 76.9018 220.67 78.5731L213.224 90.3204C211.614 92.8617 209.277 93.2407 208.029 93.2407C204.914 93.2407 201.693 90.8947 201.693 86.9665V69.9844C201.693 63.7015 204.045 57.7144 208.319 53.1286C212.618 48.5141 218.389 45.8522 224.568 45.6311V45.6282ZM250.612 86.7913V73.3067C251.432 78.7367 253.991 83.7159 258.021 87.6068C258.508 88.0777 259.016 88.5228 259.532 88.9478C259.065 88.8588 258.586 88.8128 258.095 88.8128C254.275 88.8128 250.325 91.6958 250.325 96.52V110.005C249.505 104.575 246.946 99.5982 242.916 95.7045C242.429 95.2307 241.918 94.7884 241.402 94.3606C241.869 94.4496 242.351 94.4956 242.842 94.4956C246.662 94.4956 250.612 91.6126 250.612 86.7856V86.7913ZM308.158 94.6736C308.643 94.6736 309.116 94.6276 309.575 94.5415C308.818 95.1847 308.09 95.871 307.398 96.6119C303.764 100.514 301.444 105.373 300.672 110.585V96.3506C300.672 91.5264 296.723 88.6434 292.902 88.6434C292.417 88.6434 291.944 88.6894 291.485 88.7755C292.242 88.1323 292.971 87.446 293.662 86.7052C297.296 82.8028 299.617 77.9442 300.388 72.7324V86.9665C300.388 91.7906 304.338 94.6765 308.158 94.6765V94.6736ZM324.697 45.6282C324.984 45.6168 325.276 45.6139 325.563 45.6139C338.654 45.6139 349.304 56.2758 349.304 69.3814V86.7913C349.304 90.7167 346.083 93.0655 342.968 93.0655C340.834 93.0655 338.935 91.9945 337.762 90.128L330.505 78.5903C329.447 76.9104 327.631 75.9054 325.649 75.9054C323.667 75.9054 321.86 76.9018 320.802 78.5731L313.356 90.3204C311.747 92.8617 309.409 93.2407 308.161 93.2407C305.046 93.2407 301.825 90.8947 301.825 86.9665V69.9844C301.825 63.7015 304.177 57.7144 308.451 53.1286C312.751 48.5141 318.522 45.8522 324.7 45.6311L324.697 45.6282ZM350.741 86.7913V73.3067C351.561 78.7367 354.12 83.713 358.15 87.6068C358.638 88.0777 359.145 88.5228 359.664 88.9507C359.197 88.8617 358.718 88.8157 358.227 88.8157C354.407 88.8157 350.457 91.6987 350.457 96.5228V110.007C349.637 104.577 347.078 99.6011 343.048 95.7073C342.561 95.2335 342.05 94.7913 341.534 94.3635C342.001 94.4525 342.483 94.4984 342.974 94.4984C346.794 94.4984 350.744 91.6154 350.744 86.7884L350.741 86.7913ZM408.288 94.6736C408.773 94.6736 409.246 94.6276 409.705 94.5415C408.948 95.1847 408.219 95.871 407.528 96.6119C403.894 100.514 401.573 105.373 400.804 110.585V96.3506C400.804 91.5264 396.855 88.6434 393.034 88.6434C392.549 88.6434 392.076 88.6894 391.617 88.7755C392.375 88.1323 393.103 87.446 393.794 86.7052C397.428 82.8028 399.749 77.9442 400.518 72.7324V86.9665C400.518 91.7906 404.467 94.6765 408.288 94.6765V94.6736ZM424.826 45.6282C425.113 45.6168 425.406 45.6139 425.693 45.6139C438.784 45.6139 449.434 56.2758 449.434 69.3814V86.7913C449.434 90.7167 446.212 93.0655 443.098 93.0655C440.964 93.0655 439.065 91.9945 437.892 90.128L430.635 78.5903C429.576 76.9104 427.761 75.9054 425.776 75.9054C423.791 75.9054 421.987 76.9018 420.928 78.5731L413.482 90.3204C411.873 92.8617 409.536 93.2407 408.288 93.2407C405.173 93.2407 401.952 90.8947 401.952 86.9665V69.9844C401.952 63.7015 404.304 57.7144 408.578 53.1286C412.877 48.5141 418.648 45.8522 424.826 45.6311V45.6282ZM450.871 86.7913V73.3067C451.691 78.7367 454.252 83.7159 458.282 87.6097C458.77 88.0806 459.275 88.5228 459.791 88.9478C459.323 88.8588 458.844 88.8128 458.354 88.8128C454.533 88.8128 450.584 91.6958 450.584 96.52V110.005C449.763 104.575 447.205 99.5982 443.175 95.7045C442.684 95.2307 442.177 94.7884 441.658 94.3606C442.125 94.4496 442.607 94.4956 443.098 94.4956C446.918 94.4956 450.868 91.6126 450.868 86.7856L450.871 86.7913ZM450.584 185.451V198.935C449.763 193.505 447.205 188.529 443.175 184.635C442.684 184.161 442.177 183.719 441.658 183.291C442.125 183.38 442.607 183.426 443.098 183.426C446.918 183.426 450.868 180.543 450.868 175.716V162.232C451.688 167.662 454.249 172.641 458.279 176.535C458.767 177.005 459.272 177.448 459.788 177.873C459.321 177.784 458.842 177.738 458.351 177.738C454.531 177.738 450.581 180.621 450.581 185.445L450.584 185.451ZM393.034 177.571C392.549 177.571 392.076 177.617 391.617 177.703C392.375 177.06 393.103 176.374 393.794 175.633C397.428 171.73 399.749 166.872 400.518 161.66V175.894C400.518 180.718 404.467 183.604 408.288 183.604C408.773 183.604 409.246 183.558 409.705 183.472C408.948 184.115 408.219 184.802 407.528 185.542C403.894 189.445 401.573 194.303 400.804 199.515V185.284C400.804 180.46 396.855 177.577 393.034 177.577V177.571ZM350.454 185.451V198.935C349.634 193.505 347.076 188.529 343.046 184.635C342.558 184.164 342.047 183.719 341.531 183.291C341.999 183.38 342.48 183.426 342.971 183.426C346.792 183.426 350.741 180.543 350.741 175.716V162.232C351.561 167.662 354.12 172.638 358.15 176.532C358.638 177.003 359.145 177.448 359.664 177.876C359.197 177.786 358.718 177.741 358.227 177.741C354.407 177.741 350.457 180.624 350.457 185.448L350.454 185.451ZM292.905 177.571C292.42 177.571 291.947 177.617 291.488 177.703C292.245 177.06 292.974 176.374 293.665 175.633C297.299 171.73 299.62 166.872 300.391 161.66V175.894C300.391 180.718 304.341 183.604 308.161 183.604C308.646 183.604 309.119 183.558 309.578 183.472C308.821 184.115 308.092 184.802 307.401 185.542C303.767 189.445 301.447 194.303 300.675 199.515V185.284C300.675 180.46 296.725 177.577 292.905 177.577V177.571ZM250.325 185.451V198.935C249.505 193.505 246.946 188.529 242.916 184.635C242.429 184.161 241.918 183.719 241.402 183.291C241.869 183.38 242.351 183.426 242.842 183.426C246.662 183.426 250.612 180.543 250.612 175.716V162.232C251.432 167.662 253.991 172.641 258.021 176.532C258.508 177.003 259.016 177.448 259.532 177.873C259.065 177.784 258.586 177.738 258.095 177.738C254.275 177.738 250.325 180.621 250.325 185.445V185.451ZM192.775 177.571C192.291 177.571 191.817 177.617 191.358 177.703C192.116 177.06 192.844 176.374 193.536 175.633C197.17 171.73 199.49 166.872 200.262 161.66V175.894C200.262 180.718 204.211 183.604 208.032 183.604C208.517 183.604 208.99 183.558 209.449 183.472C208.692 184.115 207.963 184.802 207.272 185.542C203.638 189.445 201.317 194.303 200.549 199.515V185.284C200.549 180.46 196.599 177.577 192.778 177.577L192.775 177.571ZM150.196 185.451V198.935C149.375 193.505 146.817 188.529 142.787 184.635C142.299 184.161 141.789 183.719 141.272 183.291C141.74 183.38 142.222 183.426 142.712 183.426C146.533 183.426 150.482 180.543 150.482 175.716V162.232C151.303 167.662 153.861 172.641 157.891 176.532C158.379 177.003 158.886 177.448 159.403 177.873C158.935 177.784 158.456 177.738 157.966 177.738C154.145 177.738 150.196 180.621 150.196 185.445V185.451ZM92.646 177.571C92.1613 177.571 91.688 177.617 91.2291 177.703C91.9863 177.06 92.7149 176.374 93.4061 175.633C97.0402 171.73 99.3607 166.872 100.132 161.66V175.894C100.132 180.718 104.082 183.604 107.902 183.604C108.387 183.604 108.861 183.558 109.319 183.472C108.562 184.115 107.834 184.802 107.142 185.542C103.508 189.445 101.188 194.303 100.416 199.515V185.284C100.416 180.46 96.4666 177.577 92.646 177.577V177.571ZM63.0423 93.1861L70.2991 104.727C71.3575 106.407 73.1731 107.412 75.158 107.412C77.1429 107.412 78.947 106.415 80.0054 104.744L87.4515 92.9966C89.0606 90.4582 91.3954 90.0763 92.646 90.0763C95.761 90.0763 98.9821 92.4223 98.9821 96.3477V113.33C98.9821 119.613 96.6301 125.6 92.3563 130.186C88.0567 134.8 82.2857 137.462 76.1074 137.683C75.8206 137.695 75.528 137.697 75.2412 137.697C62.1503 137.697 51.5003 127.035 51.5003 113.93V96.52C51.5003 92.5946 54.7214 90.2486 57.8364 90.2486C59.9704 90.2486 61.8692 91.3197 63.0423 93.1861ZM63.9889 92.0261C67.4423 93.7576 71.2629 94.6736 75.2326 94.6736C75.5395 94.6736 75.8493 94.6679 76.159 94.6564C79.7645 94.5271 83.2351 93.614 86.3903 92.006C86.3415 92.0806 86.2899 92.1524 86.2411 92.2271L78.795 103.974C78.0005 105.226 76.6409 105.976 75.158 105.976C73.6751 105.976 72.3069 105.224 71.5124 103.963L64.2556 92.4223C64.1696 92.2874 64.0806 92.1553 63.9889 92.0261ZM105.671 138.817C106.422 139.036 107.174 139.142 107.908 139.142C108.384 139.142 108.852 139.096 109.311 139.01C108.556 139.653 107.828 140.336 107.14 141.077C103.505 144.98 101.185 149.838 100.413 155.05V140.816C100.413 137.307 98.2392 134.407 94.8718 133.427C93.6356 133.069 92.3965 133.017 91.2291 133.238C91.9863 132.595 92.7149 131.908 93.4033 131.17C97.0374 127.268 99.3578 122.409 100.129 117.198V131.432C100.129 134.941 102.304 137.841 105.671 138.82V138.817ZM150.482 131.257V117.74C151.438 124.026 154.722 129.551 159.417 133.413C158.244 133.183 156.996 133.232 155.749 133.594C152.375 134.57 150.193 137.471 150.193 140.988V154.504C149.238 148.216 145.948 142.691 141.246 138.829C142.422 139.061 143.673 139.013 144.924 138.651C148.3 137.674 150.48 134.774 150.48 131.257H150.482ZM163.172 93.1861L170.429 104.727C171.487 106.407 173.303 107.412 175.285 107.412C177.267 107.412 179.074 106.415 180.132 104.744L187.578 92.9966C189.187 90.4582 191.522 90.0763 192.773 90.0763C195.888 90.0763 199.109 92.4223 199.109 96.3477V113.33C199.109 119.613 196.757 125.6 192.483 130.186C188.183 134.8 182.412 137.462 176.234 137.683C175.947 137.695 175.655 137.697 175.368 137.697C162.277 137.697 151.627 127.035 151.627 113.93V96.52C151.627 92.5946 154.848 90.2486 157.963 90.2486C160.097 90.2486 161.996 91.3197 163.169 93.1861H163.172ZM164.118 92.0261C167.569 93.7576 171.392 94.6736 175.362 94.6736C175.669 94.6736 175.979 94.6679 176.288 94.6564C179.894 94.5271 183.365 93.614 186.52 92.006C186.471 92.0806 186.419 92.1524 186.371 92.2271L178.924 103.974C178.13 105.226 176.77 105.976 175.287 105.976C173.805 105.976 172.436 105.224 171.645 103.963L164.388 92.4223C164.302 92.2874 164.213 92.1553 164.121 92.0261H164.118ZM205.8 138.817C206.552 139.036 207.303 139.142 208.038 139.142C208.514 139.142 208.981 139.096 209.44 139.01C208.686 139.653 207.957 140.336 207.269 141.077C203.635 144.98 201.314 149.838 200.546 155.05V140.816C200.546 137.307 198.371 134.407 195.004 133.427C193.768 133.069 192.529 133.017 191.361 133.238C192.119 132.595 192.847 131.908 193.536 131.168C197.17 127.265 199.49 122.407 200.262 117.195V131.429C200.262 134.938 202.436 137.838 205.803 138.817H205.8ZM250.612 131.257V117.74C251.567 124.026 254.851 129.551 259.549 133.413C258.376 133.183 257.126 133.232 255.881 133.591C252.505 134.567 250.325 137.468 250.325 140.985V154.501C249.37 148.213 246.08 142.688 241.376 138.826C242.552 139.058 243.805 139.01 245.056 138.648C248.432 137.672 250.612 134.771 250.612 131.254V131.257ZM263.301 93.1861L270.558 104.727C271.616 106.407 273.432 107.412 275.417 107.412C277.402 107.412 279.206 106.415 280.264 104.744L287.71 92.9966C289.319 90.4582 291.654 90.0763 292.905 90.0763C296.02 90.0763 299.241 92.4223 299.241 96.3477V113.33C299.241 119.613 296.889 125.6 292.615 130.186C288.316 134.8 282.545 137.462 276.366 137.683C276.079 137.695 275.787 137.697 275.5 137.697C262.409 137.697 251.759 127.035 251.759 113.93V96.52C251.759 92.5946 254.98 90.2486 258.095 90.2486C260.229 90.2486 262.128 91.3197 263.301 93.1861ZM264.248 92.0261C267.701 93.7576 271.522 94.6736 275.491 94.6736C275.798 94.6736 276.108 94.6679 276.418 94.6564C280.023 94.5271 283.494 93.614 286.649 92.006C286.6 92.0806 286.549 92.1524 286.5 92.2271L279.054 103.974C278.259 105.226 276.9 105.976 275.417 105.976C273.934 105.976 272.566 105.224 271.771 103.963L264.514 92.4223C264.428 92.2874 264.339 92.1553 264.248 92.0261ZM305.93 138.817C306.681 139.036 307.433 139.142 308.167 139.142C308.643 139.142 309.111 139.096 309.57 139.01C308.815 139.653 308.087 140.336 307.398 141.077C303.764 144.98 301.444 149.838 300.672 155.05V140.816C300.672 137.307 298.498 134.407 295.131 133.427C293.894 133.069 292.655 133.017 291.488 133.238C292.245 132.595 292.974 131.908 293.662 131.17C297.296 127.268 299.617 122.409 300.388 117.198V131.432C300.388 134.941 302.562 137.841 305.93 138.82V138.817ZM350.741 131.257V117.74C351.696 124.026 354.981 129.551 359.679 133.413C358.506 133.183 357.258 133.232 356.01 133.591C352.637 134.567 350.454 137.468 350.454 140.985V154.501C349.499 148.216 346.212 142.691 341.511 138.829C342.687 139.058 343.938 139.01 345.185 138.651C348.561 137.674 350.741 134.774 350.741 131.257ZM363.431 93.1861L370.687 104.727C371.746 106.407 373.561 107.412 375.546 107.412C377.531 107.412 379.335 106.415 380.394 104.744L387.84 92.9966C389.449 90.4582 391.784 90.0763 393.034 90.0763C396.149 90.0763 399.37 92.4223 399.37 96.3477V113.33C399.37 119.613 397.018 125.6 392.745 130.186C388.445 134.8 382.674 137.462 376.496 137.683C376.209 137.695 375.916 137.697 375.629 137.697C362.538 137.697 351.888 127.035 351.888 113.93V96.52C351.888 92.5946 355.11 90.2486 358.225 90.2486C360.359 90.2486 362.257 91.3197 363.431 93.1861ZM364.377 92.0261C367.831 93.7576 371.651 94.6736 375.621 94.6736C375.928 94.6736 376.237 94.6679 376.547 94.6564C380.153 94.5271 383.623 93.614 386.778 92.006C386.73 92.0806 386.678 92.1524 386.629 92.2271L379.183 103.974C378.389 105.226 377.029 105.976 375.546 105.976C374.063 105.976 372.695 105.224 371.901 103.963L364.644 92.4223C364.558 92.2874 364.469 92.1553 364.377 92.0261ZM406.059 138.817C406.811 139.036 407.562 139.142 408.296 139.142C408.773 139.142 409.24 139.096 409.699 139.01C408.945 139.653 408.216 140.336 407.528 141.077C403.894 144.98 401.573 149.838 400.804 155.05V140.816C400.804 137.307 398.63 134.407 395.263 133.427C394.027 133.069 392.788 133.017 391.62 133.238C392.377 132.595 393.106 131.908 393.794 131.168C397.428 127.265 399.749 122.407 400.518 117.195V131.429C400.518 134.938 402.692 137.838 406.059 138.817ZM450.871 131.257V117.74C451.826 124.026 455.113 129.551 459.811 133.413C458.638 133.183 457.387 133.232 456.14 133.591C452.767 134.567 450.584 137.468 450.584 140.985V154.501C449.629 148.213 446.342 142.688 441.638 138.826C442.814 139.058 444.064 139.01 445.315 138.648C448.688 137.672 450.871 134.771 450.871 131.254V131.257ZM437.892 179.056L430.635 167.518C429.576 165.838 427.761 164.833 425.776 164.833C423.791 164.833 421.987 165.83 420.928 167.501L413.482 179.248C411.873 181.789 409.536 182.168 408.288 182.168C405.173 182.168 401.952 179.822 401.952 175.894V158.912C401.952 152.629 404.304 146.642 408.578 142.056C412.877 137.442 418.648 134.78 424.826 134.559C425.113 134.547 425.406 134.544 425.693 134.544C438.784 134.544 449.434 145.206 449.434 158.312V175.722C449.434 179.647 446.212 181.996 443.098 181.996C440.964 181.996 439.065 180.925 437.892 179.059V179.056ZM436.939 180.21C433.222 178.346 429.072 177.433 424.775 177.585C421.169 177.715 417.699 178.628 414.544 180.236C414.592 180.161 414.644 180.089 414.693 180.015L422.139 168.267C422.933 167.015 424.293 166.266 425.776 166.266C427.259 166.266 428.627 167.018 429.421 168.279L436.678 179.82C436.761 179.954 436.85 180.084 436.939 180.21ZM414.696 135.549L422.142 123.802C422.936 122.547 424.296 121.801 425.779 121.801H425.787C427.273 121.801 428.633 122.556 429.424 123.814L436.681 135.354C436.776 135.504 436.876 135.647 436.977 135.788C433.325 133.947 429.169 132.968 424.778 133.12C421.172 133.249 417.702 134.163 414.546 135.771C414.595 135.696 414.65 135.624 414.696 135.549ZM414.546 91.3082C414.595 91.2335 414.647 91.1617 414.696 91.0871L422.142 79.3397C422.936 78.0878 424.296 77.3383 425.779 77.3383C427.262 77.3383 428.63 78.0906 429.424 79.3512L436.681 90.8918C436.764 91.0268 436.853 91.156 436.942 91.2823C433.225 89.4187 429.072 88.5085 424.778 88.6578C421.172 88.787 417.702 89.7001 414.546 91.3082ZM386.629 136.692L379.183 148.44C378.389 149.695 377.029 150.441 375.546 150.441H375.538C374.052 150.441 372.692 149.686 371.901 148.428L364.644 136.888C364.552 136.741 364.452 136.6 364.354 136.463C368.003 138.3 372.156 139.28 376.547 139.122C380.153 138.992 383.626 138.076 386.784 136.468C386.733 136.543 386.678 136.615 386.629 136.692ZM386.778 180.934C386.73 181.008 386.678 181.08 386.629 181.155L379.183 192.902C378.389 194.154 377.029 194.904 375.546 194.904C374.063 194.904 372.695 194.151 371.901 192.891L364.644 181.35C364.558 181.215 364.469 181.083 364.377 180.954C367.831 182.685 371.651 183.601 375.621 183.601C375.928 183.601 376.237 183.596 376.547 183.584C380.153 183.455 383.623 182.542 386.778 180.934ZM337.762 179.056L330.505 167.518C329.447 165.838 327.631 164.833 325.649 164.833C323.667 164.833 321.86 165.83 320.802 167.501L313.356 179.248C311.747 181.789 309.409 182.168 308.161 182.168C305.046 182.168 301.825 179.822 301.825 175.894V158.912C301.825 152.629 304.177 146.642 308.451 142.056C312.751 137.442 318.522 134.78 324.7 134.559C324.987 134.547 325.279 134.544 325.566 134.544C338.657 134.544 349.307 145.206 349.307 158.312V175.722C349.307 179.647 346.086 181.996 342.971 181.996C340.837 181.996 338.938 180.925 337.765 179.059L337.762 179.056ZM336.813 180.21C333.093 178.346 328.942 177.433 324.648 177.585C321.043 177.715 317.572 178.628 314.417 180.236C314.466 180.161 314.52 180.089 314.566 180.015L322.012 168.267C322.807 167.015 324.166 166.266 325.649 166.266C327.132 166.266 328.5 167.018 329.292 168.279L336.549 179.82C336.632 179.954 336.721 180.084 336.81 180.21H336.813ZM314.566 135.549L322.012 123.802C322.807 122.547 324.166 121.801 325.649 121.801H325.658C327.144 121.801 328.503 122.556 329.295 123.814L336.552 135.354C336.646 135.504 336.744 135.644 336.844 135.785C333.448 134.074 329.619 133.106 325.566 133.106C325.262 133.106 324.955 133.112 324.648 133.123C321.043 133.252 317.572 134.165 314.417 135.773C314.469 135.699 314.52 135.627 314.566 135.552V135.549ZM314.414 91.3082C314.463 91.2335 314.517 91.1617 314.563 91.0871L322.009 79.3397C322.804 78.0878 324.164 77.3383 325.646 77.3383C327.129 77.3383 328.498 78.0906 329.289 79.3512L336.546 90.8918C336.629 91.0268 336.718 91.156 336.81 91.2823C333.09 89.4187 328.939 88.5056 324.645 88.6578C321.04 88.787 317.569 89.7001 314.414 91.3082ZM286.5 136.692L279.054 148.44C278.259 149.695 276.9 150.441 275.417 150.441H275.408C273.922 150.441 272.563 149.686 271.771 148.428L264.514 136.888C264.423 136.741 264.322 136.6 264.225 136.463C267.873 138.3 272.026 139.28 276.418 139.122C280.026 138.992 283.497 138.076 286.655 136.468C286.603 136.543 286.549 136.615 286.5 136.692ZM286.649 180.934C286.6 181.008 286.549 181.08 286.5 181.155L279.054 192.902C278.259 194.154 276.9 194.904 275.417 194.904C273.934 194.904 272.566 194.151 271.771 192.891L264.514 181.35C264.428 181.215 264.339 181.083 264.248 180.954C267.701 182.685 271.522 183.601 275.491 183.601C275.798 183.601 276.108 183.596 276.418 183.584C280.023 183.455 283.494 182.542 286.649 180.934ZM237.633 179.056L230.376 167.518C229.318 165.838 227.502 164.833 225.517 164.833C223.532 164.833 221.728 165.83 220.67 167.501L213.224 179.248C211.614 181.789 209.277 182.168 208.029 182.168C204.914 182.168 201.693 179.822 201.693 175.894V158.912C201.693 152.629 204.045 146.642 208.319 142.056C212.618 137.442 218.389 134.78 224.568 134.559C224.854 134.547 225.147 134.544 225.434 134.544C238.525 134.544 249.175 145.206 249.175 158.312V175.722C249.175 179.647 245.954 181.996 242.839 181.996C240.705 181.996 238.806 180.925 237.633 179.059V179.056ZM236.68 180.21C232.963 178.346 228.813 177.436 224.516 177.588C220.911 177.718 217.44 178.631 214.285 180.239C214.334 180.164 214.385 180.092 214.434 180.018L221.88 168.27C222.675 167.018 224.034 166.269 225.517 166.269C227 166.269 228.368 167.021 229.163 168.282L236.419 179.822C236.503 179.954 236.592 180.087 236.68 180.213V180.21ZM214.437 135.549L221.883 123.802C222.677 122.547 224.037 121.801 225.52 121.801H225.529C227.014 121.801 228.374 122.556 229.166 123.814L236.422 135.354C236.517 135.504 236.617 135.647 236.721 135.791C233.069 133.95 228.913 132.968 224.519 133.12C220.913 133.249 217.443 134.163 214.288 135.771C214.336 135.696 214.391 135.624 214.437 135.549ZM214.285 91.3082C214.334 91.2335 214.385 91.1617 214.434 91.0871L221.88 79.3397C222.675 78.0878 224.034 77.3383 225.517 77.3383C227 77.3383 228.368 78.0906 229.163 79.3512L236.419 90.8918C236.503 91.0268 236.592 91.156 236.68 91.2823C232.963 89.4187 228.813 88.5085 224.516 88.6578C220.911 88.787 217.44 89.7001 214.285 91.3082ZM186.371 136.692L178.924 148.44C178.13 149.695 176.77 150.441 175.287 150.441H175.279C173.793 150.441 172.433 149.686 171.642 148.428L164.385 136.888C164.293 136.741 164.193 136.603 164.095 136.463C167.744 138.3 171.897 139.277 176.288 139.119C179.894 138.99 183.367 138.074 186.525 136.465C186.474 136.54 186.419 136.612 186.371 136.689V136.692ZM186.52 180.934C186.471 181.008 186.419 181.08 186.371 181.155L178.924 192.902C178.13 194.154 176.77 194.904 175.287 194.904C173.805 194.904 172.436 194.151 171.645 192.891L164.388 181.35C164.302 181.215 164.213 181.083 164.121 180.954C167.572 182.685 171.395 183.601 175.365 183.601C175.672 183.601 175.982 183.596 176.291 183.584C179.897 183.455 183.367 182.542 186.523 180.934H186.52ZM137.503 179.056L130.247 167.518C129.188 165.838 127.372 164.833 125.391 164.833C123.409 164.833 121.601 165.83 120.543 167.501L113.097 179.248C111.488 181.789 109.15 182.168 107.902 182.168C104.788 182.168 101.566 179.822 101.566 175.894V158.912C101.566 152.629 103.918 146.642 108.192 142.056C112.492 137.442 118.263 134.78 124.441 134.559C124.728 134.547 125.02 134.544 125.307 134.544C138.398 134.544 149.048 145.206 149.048 158.312V175.722C149.048 179.647 145.827 181.996 142.712 181.996C140.578 181.996 138.679 180.925 137.506 179.059L137.503 179.056ZM136.551 180.21C132.831 178.346 128.68 177.433 124.387 177.585C120.781 177.715 117.311 178.628 114.155 180.236C114.204 180.161 114.259 180.089 114.305 180.015L121.751 168.267C122.545 167.015 123.905 166.266 125.388 166.266C126.871 166.266 128.239 167.018 129.03 168.279L136.287 179.82C136.37 179.954 136.459 180.084 136.548 180.21H136.551ZM114.307 135.549L121.754 123.802C122.548 122.547 123.908 121.801 125.391 121.801H125.399C126.885 121.801 128.244 122.556 129.036 123.814L136.293 135.354C136.388 135.504 136.488 135.647 136.591 135.788C132.94 133.947 128.784 132.965 124.392 133.12C120.787 133.249 117.316 134.163 114.161 135.771C114.213 135.696 114.264 135.624 114.31 135.549H114.307ZM114.155 91.3082C114.204 91.2335 114.259 91.1617 114.305 91.0871L121.751 79.3397C122.545 78.0878 123.905 77.3383 125.388 77.3383C126.871 77.3383 128.239 78.0906 129.03 79.3512L136.287 90.8918C136.37 91.0268 136.459 91.156 136.551 91.2823C132.831 89.4187 128.68 88.5085 124.387 88.6578C120.781 88.787 117.311 89.7001 114.155 91.3082ZM76.159 139.119C79.7674 138.99 83.238 138.074 86.396 136.465C86.3444 136.54 86.2899 136.612 86.2411 136.689L78.795 148.437C78.0005 149.692 76.6409 150.438 75.158 150.438H75.1494C73.6636 150.438 72.304 149.683 71.5124 148.425L64.2556 136.885C64.1638 136.738 64.0634 136.598 63.963 136.457C67.6144 138.295 71.7677 139.274 76.159 139.119ZM75.2326 183.601C75.5395 183.601 75.8493 183.596 76.159 183.584C79.7645 183.455 83.2351 182.542 86.3903 180.934C86.3415 181.008 86.2899 181.08 86.2411 181.155L78.795 192.902C78.0005 194.154 76.6409 194.904 75.158 194.904C73.6751 194.904 72.3069 194.151 71.5124 192.891L64.2556 181.35C64.1696 181.215 64.0806 181.083 63.9889 180.954C67.4423 182.685 71.2629 183.601 75.2326 183.601ZM63.0423 182.117L70.2991 193.657C71.3575 195.337 73.1731 196.342 75.158 196.342C77.1429 196.342 78.947 195.346 80.0054 193.675L87.4515 181.927C89.0606 179.389 91.3954 179.007 92.646 179.007C95.761 179.007 98.9821 181.353 98.9821 185.278V202.26C98.9821 208.543 96.6301 214.53 92.3563 219.116C88.0567 223.731 82.2857 226.392 76.1074 226.614C75.8206 226.625 75.528 226.628 75.2412 226.628C62.1503 226.628 51.5003 215.966 51.5003 202.861V185.451C51.5003 181.525 54.7214 179.179 57.8364 179.179C59.9704 179.179 61.8692 180.25 63.0423 182.117ZM114.307 224.48L121.754 212.733C122.548 211.478 123.908 210.731 125.391 210.731H125.399C126.885 210.731 128.244 211.486 129.036 212.744L136.293 224.282C136.388 224.431 136.485 224.572 136.588 224.713C133.192 223.001 129.363 222.034 125.31 222.034C125.006 222.034 124.699 222.039 124.392 222.051C120.787 222.18 117.316 223.093 114.161 224.701C114.213 224.627 114.264 224.555 114.31 224.48H114.307ZM151.63 185.451C151.63 181.525 154.851 179.179 157.966 179.179C160.1 179.179 161.999 180.25 163.172 182.117L170.429 193.657C171.487 195.337 173.303 196.342 175.285 196.342C177.267 196.342 179.074 195.346 180.132 193.675L187.578 181.927C189.187 179.389 191.522 179.007 192.773 179.007C195.888 179.007 199.109 181.353 199.109 185.278V202.26C199.109 208.543 196.757 214.53 192.483 219.116C188.183 223.731 182.412 226.392 176.234 226.614C175.947 226.625 175.655 226.628 175.368 226.628C162.277 226.628 151.627 215.966 151.627 202.861V185.451H151.63ZM214.437 224.48L221.883 212.733C222.677 211.478 224.037 210.731 225.52 210.731H225.529C227.014 210.731 228.374 211.486 229.166 212.744L236.422 224.282C236.517 224.431 236.617 224.575 236.718 224.716C233.066 222.875 228.91 221.893 224.519 222.048C220.913 222.177 217.443 223.09 214.288 224.698C214.336 224.624 214.391 224.552 214.437 224.477V224.48ZM251.759 185.451C251.759 181.525 254.98 179.179 258.095 179.179C260.229 179.179 262.128 180.25 263.301 182.117L270.558 193.657C271.616 195.337 273.432 196.342 275.417 196.342C277.402 196.342 279.206 195.346 280.264 193.675L287.71 181.927C289.319 179.389 291.654 179.007 292.905 179.007C296.02 179.007 299.241 181.353 299.241 185.278V202.26C299.241 208.543 296.889 214.53 292.615 219.116C288.316 223.731 282.545 226.392 276.366 226.614C276.079 226.625 275.787 226.628 275.5 226.628C262.409 226.628 251.759 215.966 251.759 202.861V185.451ZM314.566 224.48L322.012 212.733C322.807 211.478 324.166 210.731 325.649 210.731H325.658C327.144 210.731 328.503 211.486 329.295 212.744L336.552 224.282C336.646 224.431 336.744 224.572 336.847 224.713C333.451 223.001 329.622 222.034 325.569 222.034C325.265 222.034 324.958 222.039 324.651 222.051C321.046 222.18 317.575 223.093 314.42 224.701C314.472 224.627 314.523 224.555 314.569 224.48H314.566ZM351.888 185.451C351.888 181.525 355.11 179.179 358.225 179.179C360.359 179.179 362.257 180.25 363.431 182.117L370.687 193.657C371.746 195.337 373.561 196.342 375.546 196.342C377.531 196.342 379.335 195.346 380.394 193.675L387.84 181.927C389.449 179.389 391.784 179.007 393.034 179.007C396.149 179.007 399.37 181.353 399.37 185.278V202.26C399.37 208.543 397.018 214.53 392.745 219.116C388.445 223.731 382.674 226.392 376.496 226.614C376.209 226.625 375.916 226.628 375.629 226.628C362.538 226.628 351.888 215.966 351.888 202.861V185.451ZM414.696 224.48L422.142 212.733C422.936 211.478 424.296 210.731 425.779 210.731H425.787C427.273 210.731 428.633 211.486 429.424 212.744L436.681 224.282C436.776 224.431 436.876 224.575 436.979 224.716C433.328 222.875 429.172 221.893 424.781 222.048C421.175 222.177 417.704 223.09 414.549 224.698C414.598 224.624 414.653 224.552 414.698 224.477L414.696 224.48ZM452.018 185.451C452.018 181.525 455.239 179.179 458.354 179.179C460.488 179.179 462.387 180.25 463.56 182.117L470.817 193.657C471.875 195.337 473.691 196.342 475.676 196.342C477.66 196.342 479.465 195.346 480.523 193.675L487.969 181.927C489.578 179.389 491.913 179.007 493.164 179.007C496.279 179.007 499.5 181.353 499.5 185.278V202.26C499.5 208.543 497.148 214.53 492.874 219.116C488.574 223.731 482.803 226.392 476.625 226.614C476.338 226.625 476.046 226.628 475.759 226.628C462.668 226.628 452.018 215.966 452.018 202.861V185.451ZM486.759 181.155L479.313 192.902C478.518 194.154 477.159 194.904 475.676 194.904C474.193 194.904 472.825 194.151 472.03 192.891L464.773 181.35C464.687 181.215 464.598 181.083 464.506 180.954C467.96 182.685 471.78 183.601 475.75 183.601C476.057 183.601 476.367 183.596 476.677 183.584C480.282 183.455 483.753 182.542 486.908 180.934C486.859 181.008 486.807 181.08 486.759 181.155ZM486.759 136.692L479.313 148.44C478.518 149.695 477.159 150.441 475.676 150.441H475.667C474.181 150.441 472.822 149.686 472.03 148.428L464.773 136.888C464.681 136.741 464.581 136.6 464.481 136.46C468.132 138.298 472.285 139.277 476.677 139.122C480.282 138.992 483.756 138.076 486.911 136.468C486.859 136.543 486.805 136.615 486.756 136.692H486.759ZM476.625 137.686C476.338 137.697 476.046 137.7 475.759 137.7C462.668 137.7 452.018 127.038 452.018 113.933V96.5228C452.018 92.5975 455.239 90.2515 458.354 90.2515C460.488 90.2515 462.387 91.3225 463.56 93.189L470.817 104.73C471.875 106.409 473.691 107.414 475.676 107.414C477.66 107.414 479.465 106.418 480.523 104.747L487.969 92.9995C489.578 90.4611 491.913 90.0792 493.164 90.0792C496.279 90.0792 499.5 92.4252 499.5 96.3506V113.333C499.5 119.616 497.148 125.603 492.874 130.188C488.574 134.803 482.803 137.465 476.625 137.686ZM486.759 92.2271L479.313 103.974C478.518 105.226 477.159 105.976 475.676 105.976C474.193 105.976 472.825 105.224 472.03 103.963L464.773 92.4223C464.687 92.2874 464.598 92.1553 464.506 92.0261C467.96 93.7576 471.78 94.6736 475.75 94.6736C476.057 94.6736 476.367 94.6679 476.677 94.6564C480.282 94.5271 483.753 93.614 486.908 92.006C486.859 92.0806 486.807 92.1524 486.759 92.2271ZM479.313 59.5091C478.518 60.764 477.159 61.5106 475.676 61.5106H475.667C474.181 61.5106 472.822 60.7553 472.03 59.4976L464.779 47.9685C468.356 49.7115 472.403 50.6362 476.674 50.4782C480.173 50.3547 483.546 49.4847 486.627 47.9657L479.31 59.5091H479.313ZM379.183 59.5091C378.389 60.764 377.029 61.5106 375.546 61.5106H375.538C374.052 61.5106 372.692 60.7553 371.901 59.4976L364.652 47.9714C368.229 49.7144 372.273 50.6362 376.547 50.4782C380.047 50.3547 383.42 49.4847 386.5 47.9657L379.183 59.5091ZM279.054 59.5091C278.259 60.764 276.9 61.5106 275.417 61.5106H275.408C273.922 61.5106 272.563 60.7553 271.771 59.4976L264.523 47.9714C267.842 49.5881 271.568 50.4955 275.5 50.4955C275.804 50.4955 276.111 50.4897 276.418 50.4782C279.917 50.3547 283.29 49.4847 286.371 47.9657L279.054 59.512V59.5091ZM178.924 59.5091C178.13 60.764 176.77 61.5106 175.287 61.5106H175.279C173.793 61.5106 172.433 60.7553 171.642 59.4976L164.394 47.9714C167.97 49.7115 172.015 50.6362 176.288 50.4782C179.788 50.3547 183.161 49.4847 186.241 47.9657L178.924 59.512V59.5091ZM78.795 59.5091C78.0005 60.764 76.6409 61.5106 75.158 61.5106H75.1494C73.6636 61.5106 72.304 60.7553 71.5124 59.4976L64.2585 47.9657C67.8381 49.7087 71.8824 50.6333 76.1562 50.4782C79.6555 50.3547 83.0286 49.4847 86.1092 47.9657L78.7921 59.512L78.795 59.5091ZM44.7971 138.648C48.1731 137.672 50.353 134.771 50.353 131.254V117.738C51.3081 124.023 54.5952 129.548 59.2934 133.413C58.1174 133.183 56.8697 133.232 55.622 133.591C52.246 134.567 50.0661 137.468 50.0661 140.985V154.501C49.111 148.216 45.8239 142.691 41.1228 138.829C42.2988 139.058 43.5494 139.01 44.7971 138.651V138.648ZM50.3501 175.719V162.234C51.1704 167.664 53.729 172.641 57.7589 176.535C58.2465 177.005 58.7542 177.451 59.2734 177.878C58.8058 177.789 58.3268 177.743 57.8364 177.743C54.0158 177.743 50.0661 180.626 50.0661 185.451V198.935C49.2458 193.505 46.6873 188.526 42.6573 184.635C42.1697 184.164 41.662 183.719 41.1429 183.294C41.6104 183.383 42.0923 183.429 42.5827 183.429C46.4033 183.429 50.353 180.546 50.353 175.719H50.3501ZM86.2411 225.62L78.795 237.367C78.0005 238.622 76.6409 239.369 75.158 239.369H75.1494C73.6636 239.369 72.304 238.614 71.5124 237.356L64.2556 225.815C64.1609 225.666 64.0606 225.522 63.9602 225.382C67.6115 227.222 71.7648 228.202 76.159 228.046C79.7674 227.917 83.238 227.001 86.396 225.393C86.3444 225.468 86.2899 225.54 86.2411 225.617V225.62ZM86.3903 269.864C86.3415 269.939 86.287 270.011 86.2411 270.085L78.795 281.833C78.0005 283.085 76.6409 283.834 75.158 283.834C73.6751 283.834 72.3069 283.082 71.5124 281.821L64.2556 270.281C64.1696 270.146 64.0806 270.014 63.9889 269.884C67.4423 271.616 71.2629 272.532 75.2297 272.532C75.5366 272.532 75.8464 272.526 76.1562 272.515C79.7616 272.385 83.2323 271.472 86.3874 269.864H86.3903ZM141.252 227.756C142.428 227.986 143.679 227.937 144.926 227.578C148.302 226.602 150.482 223.702 150.482 220.184V206.668C151.438 212.954 154.722 218.479 159.417 222.341C158.244 222.111 156.996 222.16 155.749 222.522C152.373 223.498 150.193 226.398 150.193 229.916V243.432C149.238 237.146 145.95 231.622 141.249 227.756H141.252ZM186.371 225.62L178.924 237.367C178.13 238.622 176.77 239.369 175.287 239.369H175.279C173.793 239.369 172.433 238.614 171.642 237.356L164.385 225.815C164.293 225.669 164.193 225.531 164.095 225.39C167.744 227.228 171.897 228.204 176.288 228.046C179.894 227.917 183.367 227.001 186.525 225.393C186.474 225.468 186.419 225.54 186.371 225.617V225.62ZM186.52 269.864C186.468 269.939 186.416 270.011 186.371 270.085L178.924 281.833C178.13 283.085 176.77 283.834 175.287 283.834C173.805 283.834 172.436 283.082 171.645 281.821L164.388 270.281C164.302 270.146 164.213 270.014 164.121 269.884C167.572 271.616 171.395 272.532 175.362 272.532C175.669 272.532 175.979 272.526 176.288 272.515C179.894 272.385 183.365 271.472 186.52 269.864ZM286.5 225.62L279.054 237.367C278.259 238.622 276.9 239.369 275.417 239.369H275.408C273.922 239.369 272.563 238.614 271.771 237.356L264.514 225.815C264.423 225.669 264.322 225.528 264.222 225.387C267.87 227.225 272.024 228.204 276.418 228.049C280.026 227.92 283.497 227.004 286.655 225.396C286.603 225.471 286.549 225.543 286.5 225.62ZM286.649 269.861C286.6 269.936 286.546 270.008 286.5 270.082L279.054 281.83C278.259 283.082 276.9 283.831 275.417 283.831C273.934 283.831 272.566 283.079 271.771 281.818L264.514 270.278C264.428 270.143 264.339 270.011 264.248 269.881C267.701 271.613 271.522 272.529 275.489 272.529C275.795 272.529 276.105 272.523 276.415 272.512C280.02 272.383 283.491 271.469 286.646 269.861H286.649ZM386.629 225.62L379.183 237.367C378.389 238.622 377.029 239.369 375.546 239.369H375.538C374.052 239.369 372.692 238.614 371.901 237.356L364.644 225.815C364.552 225.669 364.452 225.528 364.354 225.39C368.003 227.228 372.156 228.207 376.547 228.049C380.153 227.92 383.626 227.004 386.784 225.396C386.733 225.471 386.678 225.543 386.629 225.62ZM386.778 269.864C386.73 269.939 386.678 270.011 386.629 270.085L379.183 281.833C378.389 283.085 377.029 283.834 375.546 283.834C374.063 283.834 372.695 283.082 371.901 281.821L364.644 270.281C364.558 270.146 364.469 270.014 364.377 269.884C367.831 271.616 371.651 272.532 375.618 272.532C375.925 272.532 376.235 272.526 376.544 272.515C380.15 272.385 383.62 271.472 386.776 269.864H386.778ZM486.759 225.62L479.313 237.367C478.518 238.622 477.159 239.369 475.676 239.369H475.667C474.181 239.369 472.822 238.614 472.03 237.356L464.773 225.815C464.681 225.669 464.581 225.528 464.481 225.387C468.132 227.225 472.285 228.204 476.677 228.049C480.285 227.92 483.756 227.004 486.914 225.396C486.862 225.471 486.807 225.543 486.759 225.62ZM486.908 269.864C486.859 269.939 486.807 270.011 486.759 270.085L479.313 281.833C478.518 283.085 477.159 283.834 475.676 283.834C474.193 283.834 472.825 283.082 472.03 281.821L464.773 270.281C464.687 270.146 464.598 270.014 464.506 269.881C467.96 271.613 471.783 272.529 475.75 272.529C476.057 272.529 476.367 272.523 476.677 272.512C480.282 272.383 483.753 271.469 486.908 269.861V269.864ZM507.66 185.54C504.026 189.442 501.705 194.301 500.934 199.512V185.281C500.934 180.457 496.984 177.574 493.164 177.574C492.679 177.574 492.206 177.62 491.747 177.706C492.504 177.063 493.232 176.377 493.924 175.636C497.558 171.733 499.878 166.875 500.647 161.663V175.897C500.647 180.721 504.597 183.607 508.417 183.607C508.902 183.607 509.375 183.561 509.834 183.475C509.077 184.118 508.348 184.804 507.657 185.545L507.66 185.54ZM495.392 133.425C494.156 133.066 492.917 133.014 491.75 133.235C492.507 132.592 493.235 131.906 493.924 131.168C497.558 127.265 499.878 122.407 500.647 117.195V131.429C500.647 134.938 502.821 137.838 506.189 138.817C506.94 139.036 507.692 139.142 508.426 139.142C508.902 139.142 509.37 139.096 509.828 139.01C509.074 139.653 508.346 140.336 507.657 141.077C504.023 144.98 501.703 149.838 500.931 155.05V140.816C500.931 137.307 498.757 134.407 495.389 133.427L495.392 133.425ZM507.66 96.6119C504.026 100.514 501.705 105.373 500.934 110.585V96.3506C500.934 91.5264 496.984 88.6434 493.164 88.6434C492.679 88.6434 492.206 88.6894 491.747 88.7755C492.504 88.1323 493.232 87.446 493.924 86.7052C497.558 82.8028 499.878 77.9442 500.647 72.7324V86.9665C500.647 91.7906 504.597 94.6765 508.417 94.6765C508.902 94.6765 509.375 94.6305 509.834 94.5444C509.077 95.1876 508.348 95.8739 507.657 96.6147L507.66 96.6119ZM452.018 7.88229C452.018 3.95694 455.239 1.60804 458.354 1.60804C460.488 1.60804 462.387 2.67912 463.56 4.5456L470.817 16.0862C471.875 17.766 473.691 18.771 475.676 18.771C477.66 18.771 479.465 17.7746 480.523 16.1034L487.969 4.35608C489.578 1.81766 491.916 1.43575 493.167 1.43575C496.281 1.43575 499.503 3.78177 499.503 7.71V24.6921C499.503 30.9749 497.151 36.962 492.877 41.5478C488.577 46.1623 482.806 48.8242 476.628 49.0453C476.341 49.0568 476.048 49.0597 475.762 49.0597C462.671 49.0597 452.021 38.3978 452.021 25.2922V7.88229H452.018ZM445.315 50.0073C448.688 49.031 450.871 46.1308 450.871 42.6132V29.097C451.797 35.1903 454.912 40.5715 459.384 44.4136C458.337 44.27 457.238 44.3447 456.14 44.6605C452.767 45.6369 450.584 48.5371 450.584 52.0547V65.5709C449.657 59.4747 446.537 54.0935 442.062 50.2514C443.115 50.395 444.216 50.3232 445.318 50.0044L445.315 50.0073ZM425.776 33.1602H425.784C427.27 33.1602 428.63 33.9154 429.421 35.1731L436.678 46.7137C433.099 44.9678 429.049 44.0403 424.775 44.1896C421.276 44.3131 417.902 45.1832 414.822 46.7022L422.139 35.1587C422.933 33.9039 424.293 33.1573 425.776 33.1573V33.1602ZM406.062 50.1767C406.814 50.395 407.565 50.5012 408.299 50.5012C408.632 50.5012 408.962 50.4782 409.286 50.4352C408.678 50.975 408.093 51.5436 407.531 52.1466C403.896 56.049 401.576 60.9075 400.807 66.1193V51.8853C400.807 48.3763 398.633 45.4761 395.266 44.4969C394.176 44.181 393.083 44.1035 392.039 44.2413C392.647 43.7015 393.235 43.13 393.797 42.5241C397.431 38.6218 399.752 33.7632 400.52 28.5514V42.7855C400.52 46.2944 402.695 49.1947 406.062 50.1738V50.1767ZM351.888 7.88229C351.888 3.95694 355.11 1.60804 358.225 1.60804C360.359 1.60804 362.257 2.67912 363.431 4.5456L370.687 16.0862C371.746 17.766 373.561 18.771 375.546 18.771C377.531 18.771 379.335 17.7746 380.394 16.1034L387.84 4.35608C389.449 1.81766 391.787 1.43575 393.034 1.43575C396.149 1.43575 399.37 3.78177 399.37 7.71V24.6921C399.37 30.9749 397.018 36.962 392.745 41.5478C388.445 46.1623 382.674 48.8242 376.496 49.0453C376.209 49.0568 375.916 49.0597 375.629 49.0597C362.538 49.0597 351.888 38.3978 351.888 25.2922V7.88229ZM345.185 50.0073C348.561 49.031 350.741 46.1308 350.741 42.6132V29.097C351.668 35.1903 354.783 40.5715 359.251 44.4136C358.204 44.2729 357.106 44.3447 356.01 44.6605C352.637 45.6369 350.454 48.5371 350.454 52.0547V65.5709C349.528 59.4775 346.413 54.0963 341.941 50.2542C342.991 50.3978 344.09 50.3232 345.188 50.0073H345.185ZM325.646 33.1602H325.655C327.141 33.1602 328.5 33.9154 329.292 35.1731L336.543 46.6993C333.224 45.0827 329.499 44.1753 325.566 44.1753C325.262 44.1753 324.955 44.181 324.648 44.1925C321.149 44.316 317.776 45.186 314.695 46.7051L322.012 35.1587C322.807 33.9039 324.166 33.1573 325.649 33.1573L325.646 33.1602ZM305.93 50.1767C306.681 50.395 307.433 50.5012 308.167 50.5012C308.5 50.5012 308.83 50.4782 309.154 50.4352C308.546 50.975 307.961 51.5436 307.398 52.1466C303.764 56.049 301.444 60.9075 300.672 66.1193V51.8853C300.672 48.3763 298.498 45.4761 295.131 44.4969C294.041 44.181 292.948 44.1035 291.904 44.2413C292.512 43.7015 293.1 43.13 293.662 42.527C297.296 38.6246 299.617 33.7661 300.388 28.5543V42.7883C300.388 46.2973 302.562 49.1975 305.93 50.1767ZM251.759 7.88229C251.759 3.95694 254.98 1.60804 258.095 1.60804C260.229 1.60804 262.128 2.67912 263.301 4.5456L270.558 16.0862C271.616 17.766 273.432 18.771 275.417 18.771C277.402 18.771 279.206 17.7746 280.264 16.1034L287.71 4.35608C289.319 1.81766 291.657 1.43575 292.905 1.43575C296.02 1.43575 299.241 3.78177 299.241 7.71V24.6921C299.241 30.9749 296.889 36.962 292.615 41.5478C288.316 46.1623 282.545 48.8242 276.366 49.0453C276.079 49.0568 275.787 49.0597 275.5 49.0597C262.409 49.0597 251.759 38.3978 251.759 25.2922V7.88229ZM245.056 50.0073C248.432 49.031 250.612 46.1308 250.612 42.6132V29.097C251.538 35.1903 254.653 40.5715 259.125 44.4165C258.075 44.2729 256.977 44.3476 255.878 44.6634C252.502 45.6397 250.322 48.54 250.322 52.0576V65.5737C249.396 59.4804 246.281 54.0992 241.809 50.2571C242.859 50.4007 243.957 50.326 245.053 50.0102L245.056 50.0073ZM225.517 33.1602H225.526C227.011 33.1602 228.371 33.9154 229.163 35.1731L236.411 46.6993C233.092 45.0827 229.366 44.1753 225.434 44.1753C225.13 44.1753 224.823 44.181 224.516 44.1925C221.017 44.316 217.644 45.186 214.563 46.7051L221.88 35.1616C222.675 33.9068 224.034 33.1602 225.517 33.1602ZM205.8 50.1767C206.552 50.395 207.303 50.5012 208.038 50.5012C208.37 50.5012 208.7 50.4782 209.024 50.4352C208.416 50.975 207.831 51.5436 207.269 52.1466C203.635 56.049 201.314 60.9075 200.546 66.1193V51.8853C200.546 48.3763 198.371 45.4761 195.004 44.4969C193.914 44.181 192.821 44.1035 191.777 44.2413C192.385 43.7015 192.973 43.13 193.536 42.5241C197.17 38.6218 199.49 33.7632 200.262 28.5514V42.7855C200.262 46.2944 202.436 49.1947 205.803 50.1738L205.8 50.1767ZM151.63 7.88229C151.63 3.95694 154.851 1.60804 157.966 1.60804C160.1 1.60804 161.999 2.67912 163.172 4.5456L170.429 16.0862C171.487 17.766 173.303 18.771 175.285 18.771C177.267 18.771 179.074 17.7746 180.132 16.1034L187.578 4.35608C189.187 1.81766 191.525 1.43575 192.775 1.43575C195.89 1.43575 199.111 3.78177 199.111 7.71V24.6921C199.111 30.9749 196.759 36.962 192.486 41.5478C188.186 46.1623 182.415 48.8242 176.237 49.0453C175.95 49.0568 175.657 49.0597 175.371 49.0597C162.28 49.0597 151.63 38.3978 151.63 25.2922V7.88229ZM144.926 50.0073C148.302 49.031 150.482 46.1308 150.482 42.6132V29.097C151.409 35.1903 154.521 40.5715 158.99 44.4136C157.943 44.2729 156.847 44.3447 155.749 44.6634C152.375 45.6397 150.193 48.54 150.193 52.0576V65.5737C149.266 59.4804 146.151 54.0992 141.68 50.2542C142.729 50.3978 143.828 50.3232 144.926 50.0073ZM125.388 33.1602H125.396C126.882 33.1602 128.242 33.9154 129.033 35.1731L136.284 46.6993C132.966 45.0827 129.24 44.1753 125.307 44.1753C125.003 44.1753 124.696 44.181 124.389 44.1925C120.89 44.316 117.517 45.186 114.436 46.7051L121.754 35.1587C122.548 33.9039 123.908 33.1573 125.391 33.1573L125.388 33.1602ZM105.671 50.1767C106.422 50.395 107.174 50.5012 107.908 50.5012C108.241 50.5012 108.571 50.4782 108.895 50.4352C108.287 50.975 107.702 51.5436 107.14 52.1466C103.505 56.049 101.185 60.9075 100.413 66.1193V51.8853C100.413 48.3763 98.2392 45.4761 94.8718 44.4969C93.7819 44.1781 92.689 44.1035 91.645 44.2413C92.2531 43.7015 92.8411 43.13 93.4033 42.527C97.0374 38.6246 99.3578 33.7661 100.129 28.5543V42.7883C100.129 46.2973 102.304 49.1975 105.671 50.1767ZM51.4974 7.88229C51.4974 3.95694 54.7185 1.60804 57.8335 1.60804C59.9675 1.60804 61.8663 2.67912 63.0394 4.5456L70.2962 16.0862C71.3546 17.766 73.1703 18.771 75.1551 18.771C77.14 18.771 78.9442 17.7746 80.0026 16.1034L87.4487 4.35608C89.0578 1.81766 91.3954 1.43575 92.6431 1.43575C95.7581 1.43575 98.9792 3.78177 98.9792 7.71V24.6921C98.9792 30.9749 96.6272 36.962 92.3535 41.5478C88.0539 46.1623 82.2829 48.8242 76.1045 49.0453C75.8177 49.0568 75.5251 49.0597 75.2383 49.0597C62.1474 49.0597 51.4974 38.3978 51.4974 25.2922V7.88229ZM44.7971 50.0073C48.1731 49.031 50.353 46.1308 50.353 42.6132V29.097C51.2794 35.1903 54.3973 40.5715 58.8689 44.4165C57.8191 44.2729 56.7206 44.3476 55.622 44.6634C52.246 45.6397 50.0661 48.54 50.0661 52.0576V65.5737C49.1397 59.4804 46.0247 54.0992 41.553 50.2571C42.6028 50.4007 43.7014 50.326 44.7971 50.0102V50.0073ZM21.6212 35.1616C22.4157 33.9068 23.7753 33.1602 25.2582 33.1602H25.2668C26.7526 33.1602 28.1122 33.9154 28.9038 35.1731L36.152 46.6993C32.8334 45.0827 29.1075 44.1753 25.175 44.1753C24.871 44.1753 24.5641 44.181 24.2572 44.1925C20.7579 44.316 17.3848 45.186 14.3042 46.7051L21.6212 35.1616ZM1.43415 86.9636V69.9815C1.43415 63.6986 3.78615 57.7115 8.05992 53.1258C12.3595 48.5112 18.1305 45.8494 24.3088 45.6282C24.5957 45.6168 24.8882 45.6139 25.175 45.6139C38.266 45.6139 48.9159 56.2758 48.9159 69.3814V86.7913C48.9159 90.7167 45.6949 93.0655 42.5799 93.0655C40.4459 93.0655 38.5471 91.9945 37.3739 90.128L30.1171 78.5903C29.0587 76.9104 27.2431 75.9054 25.2582 75.9054C23.2734 75.9054 21.4692 76.9018 20.4108 78.5731L12.9647 90.3204C11.3556 92.8617 9.01793 93.2407 7.77022 93.2407C4.65525 93.2407 1.43415 90.8947 1.43415 86.9665V86.9636ZM14.178 91.0871L21.6241 79.3397C22.4186 78.0878 23.7782 77.3383 25.2611 77.3383C26.744 77.3383 28.1122 78.0906 28.9067 79.3512L36.1635 90.8918C36.2467 91.0268 36.3356 91.156 36.4245 91.2823C32.7072 89.4187 28.5539 88.5056 24.2601 88.6578C20.6546 88.787 17.184 89.7001 14.0288 91.3082C14.0776 91.2335 14.1292 91.1617 14.178 91.0871ZM14.178 135.549L21.6241 123.802C22.4186 122.547 23.7782 121.801 25.2611 121.801H25.2697C26.7555 121.801 28.1151 122.556 28.9067 123.814L36.1635 135.354C36.2582 135.504 36.3557 135.644 36.4561 135.782C33.06 134.071 29.2308 133.103 25.1779 133.103C24.8739 133.103 24.567 133.109 24.2601 133.12C20.6546 133.249 17.184 134.163 14.0288 135.771C14.0776 135.696 14.1321 135.624 14.178 135.549ZM1.43415 175.891V158.909C1.43415 152.626 3.78615 146.639 8.05992 142.053C12.3595 137.439 18.1305 134.777 24.3088 134.556C24.5957 134.544 24.8882 134.542 25.175 134.542C38.266 134.542 48.9159 145.204 48.9159 158.309V175.719C48.9159 179.644 45.6949 181.993 42.5799 181.993C40.4459 181.993 38.5471 180.922 37.3739 179.056L30.1171 167.518C29.0587 165.838 27.2431 164.833 25.2582 164.833C23.2734 164.833 21.4692 165.83 20.4108 167.501L12.9647 179.248C11.3556 181.789 9.01793 182.168 7.77022 182.168C4.65525 182.168 1.43415 179.822 1.43415 175.894V175.891ZM14.178 180.015L21.6241 168.267C22.4186 167.015 23.7782 166.266 25.2611 166.266C26.744 166.266 28.1122 167.018 28.9067 168.279L36.1635 179.82C36.2467 179.954 36.3356 180.084 36.4245 180.21C32.7072 178.346 28.5539 177.433 24.2601 177.585C20.6546 177.715 17.184 178.628 14.0288 180.236C14.0776 180.161 14.1292 180.089 14.178 180.015ZM14.178 224.48L21.6241 212.733C22.4186 211.478 23.7782 210.731 25.2611 210.731H25.2697C26.7555 210.731 28.1151 211.486 28.9067 212.744L36.1635 224.282C36.2582 224.431 36.3557 224.572 36.4589 224.713C33.0629 223.001 29.2337 222.034 25.1808 222.034C24.8767 222.034 24.5698 222.039 24.2629 222.051C20.6575 222.18 17.1868 223.093 14.0317 224.701C14.0805 224.627 14.135 224.555 14.1809 224.48H14.178ZM1.43415 264.822V247.84C1.43415 241.557 3.78615 235.57 8.05992 230.984C12.3595 226.37 18.1305 223.708 24.3088 223.487C24.5957 223.475 24.8882 223.472 25.175 223.472C38.266 223.472 48.9159 234.134 48.9159 247.24V264.65C48.9159 268.575 45.6949 270.924 42.5799 270.924C40.4459 270.924 38.5471 269.853 37.3739 267.986L30.1171 256.446C29.0587 254.766 27.2431 253.761 25.2582 253.761C23.2734 253.761 21.4692 254.757 20.4108 256.428L12.9647 268.176C11.3556 270.714 9.01793 271.096 7.77022 271.096C4.65525 271.096 1.43415 268.75 1.43415 264.825V264.822ZM24.2572 266.516C20.6517 266.645 17.1811 267.558 14.026 269.166C14.0747 269.092 14.1264 269.02 14.1751 268.945L21.6212 257.198C22.4157 255.946 23.7753 255.197 25.2582 255.197C26.7411 255.197 28.1093 255.949 28.9038 257.21L36.1606 268.75C36.2438 268.882 36.3327 269.014 36.4216 269.141C32.7043 267.277 28.551 266.364 24.2572 266.516ZM50.0633 274.381V287.866C49.2429 282.436 46.6844 277.457 42.6545 273.566C42.1668 273.095 41.6592 272.65 41.14 272.225C41.6075 272.314 42.0894 272.36 42.5799 272.36C46.4005 272.36 50.3501 269.477 50.3501 264.65V251.165C51.1704 256.595 53.729 261.571 57.7589 265.465C58.2465 265.936 58.7542 266.381 59.2705 266.809C58.803 266.72 58.324 266.674 57.8335 266.674C54.0129 266.674 50.0633 269.557 50.0633 274.384V274.381ZM98.9821 291.188C98.9821 297.471 96.6301 303.458 92.3563 308.044C88.0567 312.658 82.2857 315.32 76.1074 315.541C75.8206 315.553 75.528 315.556 75.2412 315.556C62.1503 315.556 51.5003 304.894 51.5003 291.788V274.378C51.5003 270.453 54.7214 268.104 57.8364 268.104C59.9704 268.104 61.8692 269.175 63.0423 271.042L70.2991 282.579C71.3575 284.259 73.1731 285.264 75.158 285.264C77.1429 285.264 78.947 284.268 80.0054 282.596L87.4515 270.849C89.0606 268.311 91.3983 267.929 92.646 267.929C95.761 267.929 98.9821 270.275 98.9821 274.203V291.185V291.188ZM107.142 274.467C103.508 278.37 101.188 283.228 100.416 288.44V274.209C100.416 269.385 96.4666 266.502 92.646 266.499C92.1613 266.499 91.688 266.545 91.2291 266.631C91.9863 265.988 92.7149 265.301 93.4061 264.561C97.0402 260.658 99.3607 255.8 100.132 250.588V264.822C100.132 269.646 104.082 272.529 107.902 272.529C108.387 272.529 108.861 272.483 109.319 272.397C108.562 273.04 107.834 273.726 107.142 274.467ZM124.387 266.516C120.781 266.645 117.311 267.558 114.155 269.166C114.204 269.092 114.259 269.02 114.305 268.945L121.751 257.198C122.545 255.946 123.905 255.197 125.388 255.197C126.871 255.197 128.239 255.949 129.03 257.21L136.287 268.75C136.37 268.882 136.459 269.011 136.548 269.138C132.828 267.274 128.678 266.361 124.384 266.516H124.387ZM150.196 274.381V287.866C149.375 282.436 146.817 277.459 142.787 273.566C142.299 273.092 141.789 272.65 141.272 272.222C141.74 272.311 142.222 272.357 142.712 272.357C146.533 272.357 150.482 269.474 150.482 264.647V251.162C151.303 256.592 153.861 261.571 157.891 265.462C158.379 265.933 158.886 266.378 159.403 266.803C158.935 266.714 158.456 266.668 157.966 266.668C154.145 266.668 150.196 269.551 150.196 274.378V274.381ZM199.111 291.188C199.111 297.471 196.759 303.458 192.486 308.044C188.186 312.658 182.415 315.32 176.237 315.541C175.95 315.553 175.657 315.556 175.371 315.556C162.28 315.556 151.63 304.894 151.63 291.788V274.378C151.63 270.453 154.851 268.104 157.966 268.104C160.1 268.104 161.999 269.175 163.172 271.042L170.429 282.579C171.487 284.259 173.303 285.264 175.285 285.264C177.267 285.264 179.074 284.268 180.132 282.596L187.578 270.849C189.187 268.311 191.525 267.929 192.775 267.929C195.89 267.929 199.111 270.275 199.111 274.203V291.185V291.188ZM207.272 274.467C203.638 278.37 201.317 283.228 200.549 288.44V274.209C200.549 269.385 196.599 266.502 192.778 266.499C192.294 266.499 191.82 266.545 191.361 266.631C192.119 265.988 192.847 265.301 193.538 264.561C197.173 260.658 199.493 255.8 200.265 250.588V264.822C200.265 269.646 204.214 272.529 208.035 272.529C208.52 272.529 208.993 272.483 209.452 272.397C208.694 273.04 207.966 273.726 207.275 274.467H207.272ZM224.516 266.516C220.911 266.645 217.44 267.558 214.285 269.166C214.334 269.092 214.385 269.02 214.434 268.945L221.88 257.198C222.675 255.946 224.034 255.197 225.517 255.197C227 255.197 228.368 255.949 229.163 257.21L236.419 268.75C236.503 268.882 236.592 269.011 236.68 269.138C232.96 267.274 228.807 266.361 224.516 266.516ZM250.325 274.381V287.866C249.505 282.436 246.946 277.459 242.916 273.566C242.429 273.095 241.918 272.65 241.402 272.222C241.869 272.311 242.351 272.357 242.842 272.357C246.662 272.357 250.612 269.474 250.612 264.647V251.162C251.432 256.592 253.991 261.571 258.021 265.462C258.508 265.933 259.016 266.378 259.532 266.803C259.065 266.714 258.586 266.668 258.095 266.668C254.275 266.668 250.325 269.551 250.325 274.378V274.381ZM299.241 291.188C299.241 297.471 296.889 303.458 292.615 308.044C288.316 312.658 282.545 315.32 276.366 315.541C276.079 315.553 275.787 315.556 275.5 315.556C262.409 315.556 251.759 304.894 251.759 291.788V274.378C251.759 270.453 254.98 268.104 258.095 268.104C260.229 268.104 262.128 269.175 263.301 271.042L270.558 282.579C271.616 284.259 273.432 285.264 275.417 285.264C277.402 285.264 279.206 284.268 280.264 282.596L287.71 270.849C289.319 268.311 291.657 267.929 292.905 267.929C296.02 267.929 299.241 270.275 299.241 274.203V291.185V291.188ZM307.401 274.467C303.767 278.37 301.447 283.228 300.675 288.44V274.209C300.675 269.385 296.725 266.502 292.905 266.499C292.42 266.499 291.947 266.545 291.488 266.631C292.245 265.988 292.974 265.301 293.665 264.561C297.299 260.658 299.62 255.8 300.391 250.588V264.822C300.391 269.646 304.341 272.529 308.161 272.529C308.646 272.529 309.119 272.483 309.578 272.397C308.821 273.04 308.092 273.726 307.401 274.467ZM324.648 266.516C321.043 266.645 317.572 267.558 314.417 269.166C314.466 269.092 314.52 269.02 314.566 268.945L322.012 257.198C322.807 255.946 324.166 255.197 325.649 255.197C327.132 255.197 328.5 255.949 329.292 257.21L336.549 268.75C336.632 268.882 336.721 269.011 336.81 269.141C333.09 267.277 328.936 266.364 324.645 266.516H324.648ZM350.454 274.381V287.866C349.634 282.436 347.076 277.459 343.046 273.566C342.558 273.095 342.047 272.65 341.531 272.222C341.999 272.311 342.48 272.357 342.971 272.357C346.792 272.357 350.741 269.474 350.741 264.647V251.162C351.561 256.592 354.12 261.568 358.15 265.462C358.638 265.933 359.145 266.378 359.662 266.806C359.194 266.717 358.715 266.671 358.225 266.671C354.404 266.671 350.454 269.554 350.454 274.381ZM399.37 291.188C399.37 297.471 397.018 303.458 392.745 308.044C388.445 312.658 382.674 315.32 376.496 315.541C376.209 315.553 375.916 315.556 375.629 315.556C362.538 315.556 351.888 304.894 351.888 291.788V274.378C351.888 270.453 355.11 268.104 358.225 268.104C360.359 268.104 362.257 269.175 363.431 271.042L370.687 282.579C371.746 284.259 373.561 285.264 375.546 285.264C377.531 285.264 379.335 284.268 380.394 282.596L387.84 270.849C389.449 268.311 391.787 267.929 393.034 267.929C396.149 267.929 399.37 270.275 399.37 274.203V291.185V291.188ZM407.531 274.467C403.896 278.37 401.576 283.228 400.807 288.44V274.209C400.807 269.385 396.858 266.502 393.037 266.499C392.552 266.499 392.079 266.545 391.62 266.631C392.377 265.988 393.106 265.301 393.797 264.561C397.431 260.658 399.752 255.8 400.52 250.588V264.822C400.52 269.646 404.47 272.529 408.291 272.529C408.775 272.529 409.249 272.483 409.708 272.397C408.95 273.04 408.222 273.726 407.531 274.467ZM424.778 266.516C421.172 266.645 417.702 267.558 414.546 269.166C414.595 269.092 414.647 269.02 414.696 268.945L422.142 257.198C422.936 255.946 424.296 255.197 425.779 255.197C427.262 255.197 428.63 255.949 429.424 257.21L436.681 268.75C436.764 268.882 436.853 269.011 436.942 269.138C433.222 267.274 429.072 266.361 424.778 266.516ZM450.584 274.381V287.866C449.763 282.436 447.205 277.459 443.175 273.566C442.687 273.092 442.177 272.65 441.658 272.222C442.125 272.311 442.607 272.357 443.098 272.357C446.918 272.357 450.868 269.474 450.868 264.647V251.162C451.688 256.592 454.249 261.571 458.279 265.465C458.767 265.936 459.272 266.378 459.788 266.803C459.321 266.714 458.842 266.668 458.351 266.668C454.531 266.668 450.581 269.551 450.581 274.378L450.584 274.381ZM499.5 291.188C499.5 297.471 497.148 303.458 492.874 308.044C488.574 312.658 482.803 315.32 476.625 315.541C476.338 315.553 476.046 315.556 475.759 315.556C462.668 315.556 452.018 304.894 452.018 291.788V274.378C452.018 270.453 455.239 268.104 458.354 268.104C460.488 268.104 462.387 269.175 463.56 271.042L470.817 282.579C471.875 284.259 473.691 285.264 475.676 285.264C477.66 285.264 479.465 284.268 480.523 282.596L487.969 270.849C489.578 268.308 491.916 267.929 493.167 267.929C496.281 267.929 499.503 270.275 499.503 274.203V291.185L499.5 291.188ZM507.66 274.467C504.026 278.37 501.705 283.228 500.934 288.44V274.209C500.934 269.385 496.984 266.502 493.164 266.499C492.679 266.499 492.206 266.545 491.747 266.631C492.504 265.988 493.232 265.301 493.924 264.561C497.558 260.658 499.878 255.8 500.647 250.588V264.822C500.647 269.646 504.597 272.529 508.417 272.529C508.902 272.529 509.375 272.483 509.834 272.397C509.077 273.04 508.348 273.726 507.657 274.467H507.66ZM524.907 266.516C521.302 266.645 517.831 267.558 514.676 269.166C514.725 269.092 514.779 269.02 514.825 268.945L522.271 257.198C523.066 255.946 524.425 255.197 525.908 255.197C527.391 255.197 528.759 255.949 529.554 257.21L536.811 268.75C536.894 268.882 536.983 269.011 537.072 269.138C533.351 267.274 529.198 266.361 524.907 266.516ZM549.566 247.24V264.65C549.566 268.575 546.345 270.924 543.23 270.924C541.096 270.924 539.197 269.853 538.024 267.986L530.767 256.446C529.709 254.766 527.893 253.761 525.908 253.761C523.923 253.761 522.119 254.757 521.061 256.428L513.615 268.176C512.005 270.714 509.668 271.096 508.417 271.096C505.302 271.096 502.081 268.75 502.081 264.825V247.843C502.081 241.56 504.433 235.573 508.707 230.987C513.007 226.372 518.778 223.71 524.956 223.489C525.243 223.478 525.535 223.475 525.822 223.475C538.913 223.475 549.563 234.137 549.563 247.243L549.566 247.24ZM524.907 222.051C521.302 222.18 517.831 223.093 514.676 224.701C514.725 224.627 514.779 224.555 514.825 224.48L522.271 212.733C523.066 211.478 524.425 210.731 525.908 210.731H525.917C527.403 210.731 528.762 211.486 529.554 212.744L536.811 224.282C536.905 224.431 537.006 224.575 537.106 224.716C533.455 222.875 529.298 221.896 524.907 222.048V222.051ZM524.907 177.588C521.302 177.718 517.831 178.631 514.676 180.239C514.725 180.164 514.779 180.092 514.825 180.018L522.271 168.27C523.066 167.018 524.425 166.269 525.908 166.269C527.391 166.269 528.759 167.021 529.554 168.282L536.811 179.822C536.894 179.954 536.983 180.084 537.072 180.213C533.354 178.349 529.204 177.439 524.907 177.591V177.588ZM549.566 158.309V175.719C549.566 179.644 546.345 181.993 543.23 181.993C541.096 181.993 539.197 180.922 538.024 179.056L530.767 167.515C529.709 165.835 527.893 164.83 525.908 164.83C523.923 164.83 522.119 165.827 521.061 167.498L513.615 179.245C512.005 181.786 509.668 182.166 508.417 182.166C505.302 182.166 502.081 179.82 502.081 175.891V158.909C502.081 152.626 504.433 146.639 508.707 142.053C513.007 137.439 518.778 134.777 524.956 134.556C525.243 134.544 525.535 134.542 525.822 134.542C538.913 134.542 549.563 145.204 549.563 158.309H549.566ZM525.825 133.106C525.521 133.106 525.214 133.112 524.907 133.123C521.302 133.252 517.831 134.165 514.676 135.773C514.725 135.699 514.779 135.627 514.825 135.552L522.271 123.805C523.066 122.55 524.425 121.804 525.908 121.804H525.917C527.403 121.804 528.762 122.559 529.554 123.817L536.811 135.357C536.902 135.504 537 135.641 537.1 135.779C533.707 134.071 529.878 133.106 525.825 133.106ZM524.907 88.6578C521.302 88.787 517.831 89.7001 514.676 91.3082C514.725 91.2335 514.779 91.1617 514.825 91.0871L522.271 79.3397C523.066 78.0878 524.425 77.3383 525.908 77.3383C527.391 77.3383 528.759 78.0906 529.554 79.3512L536.811 90.8918C536.894 91.0268 536.983 91.156 537.072 91.2823C533.354 89.4187 529.204 88.5085 524.907 88.6578ZM549.566 69.3814V86.7913C549.566 90.7167 546.345 93.0655 543.23 93.0655C541.096 93.0655 539.197 91.9945 538.024 90.128L530.767 78.5903C529.709 76.9104 527.893 75.9054 525.908 75.9054C523.923 75.9054 522.119 76.9018 521.061 78.5731L513.615 90.3204C512.005 92.8617 509.668 93.2407 508.417 93.2407C505.302 93.2407 502.081 90.8947 502.081 86.9665V69.9844C502.081 63.7015 504.433 57.7144 508.707 53.1286C513.007 48.5141 518.778 45.8522 524.956 45.6311C525.243 45.6196 525.535 45.6168 525.822 45.6168C538.913 45.6168 549.563 56.2787 549.563 69.3842L549.566 69.3814ZM525.825 44.1781C525.521 44.1781 525.214 44.1839 524.907 44.1954C521.408 44.3188 518.035 45.1889 514.954 46.7079L522.271 35.1645C523.066 33.9096 524.425 33.163 525.908 33.163H525.917C527.403 33.163 528.762 33.9182 529.554 35.176L536.805 46.7022C533.486 45.0855 529.76 44.1781 525.828 44.1781H525.825Z" fill="url(#paint0_linear_327_1154)" fill-opacity="0.34"/>
<defs>
<linearGradient id="paint0_linear_327_1154" x1="0" y1="158.5" x2="551.011" y2="158.5" gradientUnits="userSpaceOnUse">
<stop stop-color="white"/>
</linearGradient>
</defs>
</svg>
